<?xml version="1.0" encoding="UTF-8"?>
<!DOCTYPE svg PUBLIC "-//W3C//DTD SVG 1.1//EN" "http://www.w3.org/Graphics/SVG/1.1/DTD/svg11.dtd">
<!-- Creator: CorelDRAW 2021 (64-Bit) -->
<svg xmlns="http://www.w3.org/2000/svg" xml:space="preserve" width="3.10845in" height="0.613654in" version="1.1" style="shape-rendering:geometricPrecision; text-rendering:geometricPrecision; image-rendering:optimizeQuality; fill-rule:evenodd; clip-rule:evenodd"
viewBox="0 0 1066.02 210.45"
 xmlns:xlink="http://www.w3.org/1999/xlink"
 xmlns:xodm="http://www.corel.com/coreldraw/odm/2003">
 <defs>
  <style type="text/css">
   <![CDATA[
    .fil1 {fill:#C0F003}
    .fil0 {fill:#C0F003;fill-rule:nonzero}
   ]]>
  </style>
 </defs>
 <g id="Layer_x0020_1">
  <metadata id="CorelCorpID_0Corel-Layer"/>
  <g id="logo">
   <path id="Z" class="fil0" d="M943.59 174.21c39.18,-0.07 78.36,0 117.54,0 4.88,0.01 4.88,0.01 4.88,-4.86 0,-3.92 -0,-7.84 -0,-11.76 0,-4.82 0,-4.82 -4.88,-4.82 -24.24,0.01 -48.49,0.01 -72.73,0.02 -5.57,-0.02 -4,-1.37 0,-4.81 7.63,-6.37 77.61,-63.5 77.61,-65.67 0,-5.06 0,-9.36 0,-14.04 0,-4.84 0,-4.84 -4.87,-4.84 -39.17,0 -78.34,0 -117.51,0 -4.89,0 -4.89,0 -4.89,4.87 0,4.69 0,9.37 0,14.05 0,4.85 0,4.85 4.85,4.85 23.85,0 47.7,0 71.56,0 3.65,0 6.36,0 -0,4.85 -7.99,7.01 -76.12,63.38 -76.42,65.57 0,5.54 0,6.23 0,11.77 0.01,4.83 0.01,4.83 4.86,4.82z"/>
   <path id="a" class="fil0" d="M842.22 174.21c34.24,0 49.15,-4.69 56.61,-12.35 0,2.5 0,4.99 0,7.49 0,4.86 0,4.86 4.84,4.86l19.3 0c4.88,0.01 4.88,0.01 4.89,-4.87 0.03,-14.34 0.28,-56.47 -0.84,-73.22 -3.06,-45.9 -127.47,-39.65 -134.15,-4.05 -0.19,0.72 0.23,4.79 4.85,4.79 6.23,0 12.47,0 18.7,0 6.38,0 3.24,-3.23 4.9,-4.81 10.88,-7.5 77.47,-9.39 77.68,13.28 -12.69,-1.21 -20.43,-2.43 -41.27,-2.22 -20.84,0.22 -71.9,11.07 -71.7,40.28 0.2,29.21 21.96,30.82 56.19,30.82zm15.51 -21.44c-10.96,0 -41.3,2.37 -41.3,-11.59 0,-17.41 28.41,-18.48 41.3,-18.54 12.89,-0.05 30.99,1.01 41.27,2.01 0,12.22 -6.65,20.63 -17.5,24.17 -8.23,2.68 -12.81,3.94 -23.77,3.94z"/>
   <path id="t" class="fil0" d="M741.96 174.21c9.22,0 21.63,-0.01 28.37,-0 4.86,0.01 4.86,0.01 4.86,-4.83 0,-5.55 0,-11.09 0,-16.64 0,-4.81 0,-4.81 -4.83,-4.83 -26.78,-0.06 -40.56,-1.82 -40.56,-16.01 0,-9.55 0.01,-28.12 0.01,-39.92 0,-4.78 0,-4.78 4.81,-4.78 11.91,0 23.82,0 35.73,0 4.85,0 4.85,0 4.85,-4.85 0,-4.7 -0.03,-9.41 -0.03,-14.11 0,-4.81 0,-4.81 -4.85,-4.81 -11.88,0 -23.81,0 -35.7,0 -4.83,0 -4.83,0 -4.83,-4.57 0,-7.24 0,-11.8 0,-17.86 0,-4.81 0,-4.81 -4.84,-4.81 -6.53,-0 -13.05,0 -19.58,0 -4.79,0 -4.79,0 -4.79,4.85 0,5.36 -0.01,11.55 -0,17.83 0,4.57 0,4.57 -4.85,4.57 -4.79,0 -9.62,0 -14.4,0 -4.86,0 -4.84,-0.05 -4.84,4.85 0,4.67 0.01,9.4 0.01,14.07 -0.01,4.85 0,4.85 4.85,4.85 4.8,0 9.6,0 14.4,0 4.85,0 4.85,0 4.85,4.81l-0.01 39.99c-0.01,26.58 19.01,42.21 41.37,42.21z"/>
   <path id="p" class="fil0" d="M524.54 210.44c6.51,0 13.01,0 19.52,0 4.84,0.04 4.84,0.04 4.83,-4.83 -0.02,-17.62 0.01,-35.2 0.01,-52.82 0,-4.04 1.9,-2.19 4.1,0.01 25.7,25.56 82.15,30.54 106.87,1.5 7.69,-9.03 12.23,-24.17 12.23,-39.48 0,-14.7 -4.36,-23.78 -11.63,-32.83 -20.43,-25.43 -83.95,-23.33 -107.48,-2.33 -0.68,0.6 -4.1,5.37 -4.1,0 0,-3.78 0,-7.62 0,-11.4 0,-4.8 0,-4.8 -4.86,-4.8 -6.5,0 -12.99,0 -19.49,0 -4.85,0 -4.85,0 -4.85,4.84 0,45.77 0,91.55 0,137.32 0,4.87 -0.01,4.83 4.84,4.83zm28.47 -95.62c0.02,-33.43 89.12,-40.49 89.35,0 -0.28,46.49 -89.37,33.43 -89.35,0z"/>
   <path id="i" class="fil0" d="M484.43 174.32c6.51,0 13.02,0 19.54,0 4.85,0.01 4.85,0.01 4.83,-4.91 -0.11,-33.63 0.01,-67.43 0.01,-101.05 0,-4.8 0,-4.81 -4.89,-4.81 -6.48,0 -12.96,0 -19.45,0 -4.87,0 -4.87,0 -4.87,4.83 -0.01,33.63 -0.08,67.41 -0.01,101.03 0.01,4.92 0.01,4.92 4.83,4.91zm0.04 -115.34l19.49 0c4.86,0 4.86,0 4.86,-4.83 0,-4.34 0,-8.68 0,-13.03 -0,-4.82 -0,-4.82 -4.89,-4.82 -6.49,-0 -12.97,0 -19.46,0 -4.85,0 -4.85,0 -4.86,4.83 0,4.32 0,8.63 0,12.95 0.01,4.89 0.01,4.89 4.86,4.89z"/>
   <path id="r" class="fil0" d="M371.39 174.27c6.51,0 13.01,0.01 19.52,0.01 4.85,0 4.83,0 4.85,-4.87l0.19 -42.87c0.11,-24.65 19.74,-39.27 42.3,-39.27 10.11,0 18.02,3.04 25.56,4.85 5.56,1.33 4.85,-4.85 4.85,-4.88 0,-6.29 0,-12.58 0,-18.88 0,-4.86 0,-4.86 -4.86,-4.86 -6.47,0 -13.13,-0.28 -23.33,0.13 -17.48,0.7 -33,6.56 -40.61,16.05 -4.64,5.78 -4.08,0.01 -4.08,0.01 0,-3.8 0,-7.6 0,-11.4 0,-4.79 0,-4.79 -4.84,-4.79 -6.51,0 -13.02,0 -19.53,0 -4.85,0 -4.85,0 -4.85,4.84 0,33.69 0,67.38 0,101.07 0,4.86 0,4.86 4.86,4.86z"/>
   <path id="K" class="fil0" d="M220.76 174.28c6.46,0 12.91,0 19.37,0 4.84,0 4.84,0 4.83,-4.85 0,-14.17 0,-28.4 0,-42.57 0,-4.91 0.12,-3.84 4.07,-7.05 2.07,-1.68 4.26,-3.27 6.33,-4.95 3.5,-2.83 3.5,-2.83 7,0 19.15,18 37.77,36.52 56.92,54.52 2.96,2.79 6.54,4.89 10.67,4.89 8.53,0 17.07,0 25.6,0 6.51,0 -0.01,-4.85 -0.01,-4.85 -23.96,-23.97 -46.39,-45.73 -70.82,-69.22 -3.96,-3.96 -4.14,-3.4 0.09,-6.54 24.41,-18.14 46.32,-34.42 70.73,-52.56 0,0 6.52,-4.85 0.03,-4.85 -8.55,0 -17.1,0 -25.65,0 -6,0 -6.11,1.51 -10.64,4.85l-67.73 49.91c0,0 -6.58,5.9 -6.58,-0.02 0,-16.61 0,-33.23 0,-49.84 0,-4.9 0,-4.9 -4.84,-4.89 -4.02,0 -12.87,0.01 -19.31,0.01 -4.86,-0.01 -4.86,-0.01 -4.86,4.84 0,42.78 0,85.56 0,128.34 0,4.84 0,4.84 4.8,4.84z"/>
   <path id="Leaf" class="fil1" d="M13.94 167.48c0,0 -11.03,-49.18 17.79,-82.71 28.83,-33.53 106.69,-50.26 114.26,-84.77 0,0 20.05,90.6 -28.9,138.84 -48.95,48.24 -113.37,48.45 -116.89,71.26 0,0 -5.46,-18.91 41.04,-44.3 61.88,-33.79 89.61,-78.08 89.61,-124.69 0,-7.16 -4.46,-5.44 -5.39,0 -3.74,21.15 -20.64,86.64 -111.52,126.37z"/>
  </g>
 </g>
</svg>
