<?xml version="1.0" encoding="UTF-8"?>
<!DOCTYPE svg PUBLIC "-//W3C//DTD SVG 1.1//EN" "http://www.w3.org/Graphics/SVG/1.1/DTD/svg11.dtd">
<!-- Creator: CorelDRAW 2021 (64-Bit) -->
<svg xmlns="http://www.w3.org/2000/svg" xml:space="preserve" width="3.10845in" height="0.613654in" version="1.1" style="shape-rendering:geometricPrecision; text-rendering:geometricPrecision; image-rendering:optimizeQuality; fill-rule:evenodd; clip-rule:evenodd"
viewBox="0 0 1054 208.08"
 xmlns:xlink="http://www.w3.org/1999/xlink"
 xmlns:xodm="http://www.corel.com/coreldraw/odm/2003">
 <defs>
  <style type="text/css">
   <![CDATA[
    .fil1 {fill:white}
    .fil0 {fill:white;fill-rule:nonzero}
   ]]>
  </style>
 </defs>
 <g id="Layer_x0020_1">
  <metadata id="CorelCorpID_0Corel-Layer"/>
  <g id="logo">
   <path id="Z" class="fil0" d="M932.96 172.25c38.74,-0.07 77.48,0 116.22,0 4.83,0.01 4.83,0.01 4.83,-4.81 0,-3.88 -0,-7.75 -0,-11.62 0,-4.76 0,-4.76 -4.82,-4.76 -23.97,0.01 -47.94,0.01 -71.91,0.02 -5.51,-0.02 -3.95,-1.35 0,-4.75 7.54,-6.3 76.73,-62.78 76.73,-64.93 0,-5.01 0,-9.25 0,-13.88 0,-4.79 0,-4.79 -4.81,-4.79 -38.73,0 -77.46,0 -116.19,0 -4.84,0 -4.84,0 -4.84,4.81 0,4.63 0,9.26 0,13.89 0,4.79 0,4.79 4.79,4.79 23.58,0 47.17,0 70.75,0 3.61,0 6.29,0 -0,4.79 -7.9,6.93 -75.27,62.66 -75.56,64.83 0,5.48 0,6.16 0,11.64 0.01,4.77 0.01,4.77 4.81,4.77z"/>
   <path id="a" class="fil0" d="M832.73 172.25c33.85,0 48.6,-4.64 55.97,-12.21 0,2.47 0,4.94 0,7.4 0,4.81 0,4.81 4.78,4.8l19.08 0c4.82,0.01 4.82,0.01 4.83,-4.81 0.03,-14.18 0.27,-55.83 -0.83,-72.4 -3.02,-45.38 -126.03,-39.2 -132.64,-4 -0.19,0.71 0.23,4.73 4.8,4.73 6.16,0 12.33,0 18.49,0 6.31,0 3.21,-3.19 4.85,-4.75 10.76,-7.42 76.6,-9.28 76.81,13.13 -12.55,-1.19 -20.2,-2.4 -40.81,-2.19 -20.61,0.21 -71.09,10.95 -70.89,39.83 0.2,28.88 21.71,30.47 55.56,30.47zm15.33 -21.2c-10.84,0 -40.83,2.34 -40.83,-11.46 0,-17.21 28.09,-18.27 40.83,-18.33 12.74,-0.05 30.65,0.99 40.8,1.99 0,12.08 -6.58,20.4 -17.3,23.9 -8.14,2.65 -12.66,3.9 -23.5,3.9z"/>
   <path id="t" class="fil0" d="M733.6 172.25c9.11,0 21.38,-0.01 28.05,-0 4.8,0.01 4.8,0.01 4.8,-4.77 0,-5.48 0,-10.97 0,-16.45 0,-4.76 0,-4.76 -4.78,-4.77 -26.48,-0.06 -40.1,-1.8 -40.1,-15.83 0,-9.44 0.01,-27.8 0.01,-39.47 0,-4.72 0,-4.72 4.76,-4.72 11.78,0 23.55,0 35.33,0 4.79,0 4.79,0 4.79,-4.79 0,-4.65 -0.03,-9.3 -0.03,-13.95 0,-4.75 0,-4.75 -4.79,-4.75 -11.75,0 -23.54,0 -35.29,0 -4.78,0 -4.78,0 -4.78,-4.51 0,-7.16 0,-11.67 0,-17.66 0,-4.76 0,-4.76 -4.79,-4.76 -6.45,-0 -12.91,0 -19.36,0 -4.73,0 -4.73,0 -4.73,4.79 0,5.3 -0.01,11.42 -0,17.63 0,4.51 0,4.51 -4.79,4.51 -4.73,0 -9.51,0 -14.24,0 -4.8,0 -4.79,-0.05 -4.79,4.8 0,4.62 0.01,9.29 0.01,13.91 -0.01,4.79 0,4.79 4.79,4.79 4.75,0 9.49,0 14.24,0 4.79,0 4.79,0 4.79,4.75l-0.01 39.54c-0.01,26.28 18.79,41.73 40.9,41.73z"/>
   <path id="p" class="fil0" d="M518.62 208.07c6.43,0 12.87,0 19.3,0 4.79,0.04 4.79,0.04 4.78,-4.78 -0.02,-17.42 0.01,-34.81 0.01,-52.23 0,-3.99 1.88,-2.16 4.06,0.01 25.41,25.28 81.22,30.2 105.67,1.48 7.6,-8.93 12.1,-23.9 12.1,-39.04 0,-14.54 -4.31,-23.51 -11.5,-32.46 -20.2,-25.14 -83,-23.06 -106.26,-2.3 -0.67,0.6 -4.06,5.31 -4.06,0 0,-3.74 0,-7.53 0,-11.27 0,-4.75 0,-4.75 -4.81,-4.75 -6.42,0 -12.85,0 -19.27,0 -4.79,0 -4.79,0 -4.79,4.78 0,45.26 0,90.51 0,135.77 0,4.82 -0.01,4.78 4.79,4.78zm28.14 -94.54c0.02,-33.05 88.11,-40.04 88.34,0 -0.28,45.96 -88.36,33.05 -88.34,0z"/>
   <path id="i" class="fil0" d="M478.97 172.35c6.44,0 12.88,0 19.32,0 4.8,0.01 4.8,0.01 4.78,-4.86 -0.11,-33.25 0.01,-66.67 0.01,-99.92 0,-4.75 0,-4.75 -4.83,-4.75 -6.41,0 -12.82,0 -19.23,0 -4.82,0 -4.82,0 -4.82,4.77 -0.01,33.25 -0.08,66.65 -0.01,99.9 0.01,4.87 0.01,4.87 4.77,4.86zm0.04 -114.04l19.27 0c4.81,0 4.81,0 4.81,-4.78 0,-4.29 0,-8.59 0,-12.88 -0,-4.76 -0,-4.76 -4.84,-4.77 -6.41,-0 -12.83,0 -19.24,0 -4.8,0 -4.8,0 -4.8,4.78 0,4.27 0,8.54 0,12.8 0.01,4.84 0.01,4.84 4.81,4.84z"/>
   <path id="r" class="fil0" d="M367.21 172.31c6.43,0 12.86,0.01 19.3,0.01 4.79,0 4.77,0 4.79,-4.82l0.18 -42.39c0.11,-24.37 19.52,-38.83 41.82,-38.83 9.99,0 17.82,3 25.27,4.79 5.49,1.32 4.79,-4.79 4.79,-4.82 0,-6.22 0,-12.44 0,-18.66 0,-4.8 0,-4.8 -4.81,-4.8 -6.4,0 -12.99,-0.27 -23.07,0.13 -17.28,0.7 -32.62,6.49 -40.16,15.87 -4.59,5.72 -4.04,0.01 -4.04,0.01 0,-3.76 0,-7.51 0,-11.27 0,-4.74 0,-4.74 -4.79,-4.74 -6.44,0 -12.87,0 -19.31,0 -4.79,0 -4.79,0 -4.79,4.79 0,33.31 0,66.62 0,99.93 0,4.81 0,4.81 4.8,4.8z"/>
   <path id="K" class="fil0" d="M218.27 172.31c6.39,0 12.77,0 19.16,0 4.78,0 4.78,0 4.78,-4.79 0,-14.01 0,-28.08 0,-42.09 0,-4.86 0.11,-3.8 4.02,-6.97 2.05,-1.66 4.21,-3.23 6.25,-4.89 3.46,-2.8 3.46,-2.8 6.92,0 18.93,17.8 37.35,36.11 56.28,53.91 2.93,2.75 6.47,4.83 10.55,4.83 8.44,0 16.88,0 25.32,0 6.44,0 -0.01,-4.79 -0.01,-4.79 -23.69,-23.7 -45.86,-45.22 -70.02,-68.44 -3.92,-3.92 -4.09,-3.36 0.09,-6.47 24.13,-17.93 45.8,-34.04 69.93,-51.97 0,0 6.45,-4.79 0.03,-4.79 -8.45,0 -16.91,0 -25.36,0 -5.93,0 -6.04,1.49 -10.52,4.8l-66.97 49.35c0,0 -6.5,5.83 -6.5,-0.02 0,-16.43 0,-32.85 0,-49.28 0,-4.84 0,-4.84 -4.79,-4.84 -3.98,0 -12.73,0.01 -19.09,0.01 -4.81,-0.01 -4.81,-0.01 -4.81,4.78 0,42.3 0,84.59 0,126.89 0,4.78 0,4.78 4.74,4.78z"/>
   <path id="Leaf" class="fil1" d="M13.78 165.59c0,0 -10.91,-48.62 17.59,-81.78 28.5,-33.15 105.48,-49.7 112.97,-83.81 0,0 19.82,89.58 -28.58,137.27 -48.4,47.69 -112.09,47.91 -115.57,70.45 0,0 -5.4,-18.7 40.58,-43.81 61.18,-33.41 88.6,-77.2 88.6,-123.28 0,-7.08 -4.41,-5.38 -5.33,0 -3.7,20.91 -20.41,85.67 -110.26,124.95z"/>
  </g>
 </g>
</svg>
