<?xml version="1.0" encoding="UTF-8"?>
<!DOCTYPE svg PUBLIC "-//W3C//DTD SVG 1.1//EN" "http://www.w3.org/Graphics/SVG/1.1/DTD/svg11.dtd">
<!-- Creator: CorelDRAW 2021 (64-Bit) -->
<svg xmlns="http://www.w3.org/2000/svg" xml:space="preserve" width="3.10845in" height="0.613654in" version="1.1" style="shape-rendering:geometricPrecision; text-rendering:geometricPrecision; image-rendering:optimizeQuality; fill-rule:evenodd; clip-rule:evenodd"
viewBox="0 0 4154.17 820.09"
 xmlns:xlink="http://www.w3.org/1999/xlink"
 xmlns:xodm="http://www.corel.com/coreldraw/odm/2003">
 <defs>
  <style type="text/css">
   <![CDATA[
    .fil1 {fill:#1C180D}
    .fil0 {fill:#1C180D;fill-rule:nonzero}
   ]]>
  </style>
 </defs>
 <g id="Layer_x0020_1">
  <metadata id="CorelCorpID_0Corel-Layer"/>
  <g id="logo">
   <path id="Z" class="fil0" d="M3677.08 678.88c152.68,-0.28 305.37,0 458.05,0 19.03,0.03 19.03,0.03 19.04,-18.96 0.01,-15.27 -0.01,-30.54 -0.01,-45.81 0,-18.77 0,-18.77 -19,-18.77 -94.47,0.03 -188.94,0.05 -283.42,0.08 -21.72,-0.08 -15.58,-5.33 0,-18.74 29.72,-24.82 302.42,-247.45 302.42,-255.92 0,-19.74 0,-36.47 0,-54.7 0,-18.86 0,-18.86 -18.96,-18.86 -152.65,0 -305.29,0 -457.93,0 -19.07,0 -19.07,0 -19.07,18.97 0,18.26 0,36.5 0,54.76 0,18.89 0,18.89 18.89,18.89 92.95,0 185.9,0 278.85,0 14.22,0 24.78,0 -0.01,18.89 -31.13,27.3 -296.65,246.98 -297.8,255.52 0,21.58 0,24.28 0,45.87 0.06,18.82 0.06,18.82 18.94,18.78z"/>
   <path id="a" class="fil0" d="M3282.04 678.88c133.42,0 191.55,-18.29 220.59,-48.11 0,9.72 0,19.46 0,29.19 0,18.96 0,18.96 18.86,18.92l75.2 0c19.01,0.04 19.01,0.04 19.05,-18.97 0.11,-55.87 1.08,-220.05 -3.27,-285.35 -11.92,-178.87 -496.72,-154.51 -522.76,-15.77 -0.75,2.8 0.89,18.65 18.91,18.65 24.29,0 48.58,0 72.88,0 24.88,0 12.63,-12.58 19.1,-18.73 42.41,-29.23 301.9,-36.57 302.73,51.75 -49.45,-4.71 -79.62,-9.47 -160.84,-8.63 -81.23,0.84 -280.2,43.15 -279.42,156.97 0.78,113.82 85.56,120.09 218.98,120.09zm60.44 -83.54c-42.71,0 -160.93,9.24 -160.93,-45.15 0,-67.85 110.72,-72.02 160.93,-72.23 50.22,-0.21 120.78,3.92 160.81,7.85 0,47.62 -25.93,80.41 -68.2,94.18 -32.08,10.46 -49.91,15.35 -92.61,15.35z"/>
   <path id="t" class="fil0" d="M2891.35 678.88c35.92,0 84.28,-0.06 110.57,-0.01 18.94,0.04 18.94,0.04 18.94,-18.82 0,-21.61 0,-43.23 0,-64.85 0,-18.76 0,-18.76 -18.84,-18.81 -104.36,-0.24 -158.04,-7.1 -158.04,-62.39 0,-37.22 0.05,-109.58 0.05,-155.58 0,-18.62 0,-18.62 18.75,-18.62 46.42,0 92.82,0 139.24,0 18.89,0 18.89,0 18.89,-18.89 0,-18.33 -0.11,-36.66 -0.11,-54.99 0,-18.74 0,-18.74 -18.89,-18.74 -46.31,0 -92.8,0 -139.11,0 -18.82,0 -18.82,0 -18.82,-17.79 0,-28.21 0,-45.98 0,-69.6 0,-18.76 0,-18.76 -18.86,-18.76 -25.44,-0.01 -50.87,0 -76.31,0 -18.65,0.01 -18.65,0.01 -18.65,18.89 0,20.89 -0.03,45.01 -0.01,69.47 0.01,17.79 0.01,17.79 -18.89,17.79 -18.65,0 -37.48,0 -56.12,0 -18.94,0 -18.87,-0.2 -18.87,18.9 0,18.21 0.04,36.61 0.04,54.82 -0.04,18.89 0,18.89 18.89,18.89 18.7,0 37.41,0 56.11,0 18.89,0 18.88,0.01 18.88,18.73l-0.04 155.84c-0.02,103.59 74.08,164.49 161.2,164.49z"/>
   <path id="p" class="fil0" d="M2044.06 820.07c25.36,0 50.71,0 76.07,0 18.86,0.15 18.86,0.15 18.84,-18.83 -0.08,-68.65 0.02,-137.19 0.02,-205.85 0,-15.74 7.4,-8.52 15.99,0.02 100.14,99.62 320.12,119.01 416.47,5.83 29.95,-35.19 47.67,-94.21 47.67,-153.85 0,-57.3 -16.99,-92.66 -45.32,-127.92 -79.63,-99.08 -327.15,-90.9 -418.82,-9.08 -2.64,2.36 -15.99,20.91 -15.99,0 0,-14.73 0,-29.7 0,-44.42 0,-18.7 0,-18.7 -18.96,-18.7 -25.32,0 -50.64,0 -75.96,0 -18.88,0 -18.88,0 -18.88,18.86 0,178.37 0,356.74 0,535.11 0,18.98 -0.03,18.83 18.87,18.83zm110.93 -372.61c0.07,-130.26 347.27,-157.79 348.19,0 -1.1,181.15 -348.26,130.26 -348.19,0z"/>
   <path id="i" class="fil0" d="M1887.78 679.3c25.38,0 50.75,0.01 76.13,0.01 18.9,0.03 18.9,0.03 18.84,-19.15 -0.42,-131.04 0.02,-262.76 0.06,-393.8 0.01,-18.72 0.01,-18.73 -19.04,-18.73 -25.26,0 -50.52,0 -75.78,0 -18.98,0 -18.98,0 -18.98,18.8 -0.03,131.04 -0.33,262.69 -0.04,393.72 0.04,19.18 0.04,19.18 18.82,19.14zm0.14 -449.47l75.93 0c18.96,0 18.96,0 18.96,-18.82 0,-16.92 0.01,-33.84 0.01,-50.76 -0.01,-18.78 -0.01,-18.78 -19.07,-18.78 -25.28,-0.01 -50.55,0 -75.83,0 -18.9,0.01 -18.9,0.01 -18.93,18.83 0,16.83 0,33.64 0,50.47 0.03,19.07 0.03,19.07 18.94,19.07z"/>
   <path id="r" class="fil0" d="M1447.28 679.11c25.35,0.01 50.7,0.02 76.05,0.03 18.89,0 18.8,0 18.89,-18.98l0.73 -167.07c0.42,-96.04 76.92,-153.05 164.83,-153.05 39.39,0 70.24,11.83 99.62,18.89 21.65,5.19 18.89,-18.89 18.89,-19.01 0,-24.52 0,-49.04 0,-73.56 0,-18.93 0,-18.93 -18.95,-18.93 -25.23,0 -51.18,-1.08 -90.93,0.52 -68.1,2.74 -128.58,25.58 -158.26,62.54 -18.1,22.53 -15.92,0.03 -15.92,0.03 0,-14.81 0,-29.62 0,-44.42 0,-18.67 0,-18.67 -18.87,-18.67 -25.37,0 -50.74,0 -76.11,0 -18.89,0 -18.89,0 -18.89,18.88 0,131.29 0,262.58 0,393.87 0,18.96 0,18.96 18.92,18.93z"/>
   <path id="K" class="fil0" d="M860.29 679.14c25.17,0 50.33,0 75.5,0 18.85,0 18.85,0 18.84,-18.89 0.01,-55.22 0.01,-110.68 0.02,-165.9 0,-19.15 0.45,-14.98 15.85,-27.45 8.07,-6.53 16.58,-12.74 24.65,-19.27 13.63,-11.04 13.63,-11.04 27.29,0 74.62,70.14 147.19,142.32 221.8,212.46 11.54,10.85 25.48,19.05 41.57,19.05 33.26,0 66.52,0 99.78,0 25.39,0 -0.04,-18.89 -0.04,-18.89 -93.38,-93.42 -180.76,-178.21 -275.97,-269.76 -15.44,-15.44 -16.12,-13.25 0.35,-25.49 95.11,-70.68 180.51,-134.15 275.62,-204.83 0,0 25.42,-18.89 0.11,-18.89 -33.32,0 -66.65,0 -99.97,0 -23.38,0 -23.81,5.88 -41.48,18.9l-263.95 194.51c0,0 -25.62,22.98 -25.62,-0.09 0,-64.74 0,-129.49 0,-194.23 0,-19.08 0,-19.08 -18.86,-19.07 -15.68,0.01 -50.16,0.02 -75.24,0.03 -18.94,-0.04 -18.94,-0.04 -18.94,18.85 0,166.7 0,333.41 0,500.11 0,18.86 0,18.86 18.7,18.86z"/>
   <path id="Leaf" class="fil1" d="M54.32 652.64c0,0 -42.99,-191.63 69.33,-322.31 112.33,-130.67 415.74,-195.87 445.26,-330.33 0,0 78.13,353.05 -112.63,541.04 -190.75,187.98 -441.77,188.82 -455.51,277.68 0,0 -21.29,-73.69 159.94,-172.65 241.14,-131.66 349.19,-304.28 349.19,-485.89 0,-27.91 -17.38,-21.19 -20.99,0 -14.56,82.4 -80.43,337.64 -434.59,492.47z"/>
  </g>
 </g>
</svg>
